<?xml version="1.0" encoding="UTF-8"?><svg id="Layer_2" xmlns="http://www.w3.org/2000/svg" viewBox="0 0 680.28 372.86"><defs><style>.cls-1{fill:#f1f2f2;}</style></defs><g id="Layer_1-2"><g><g><path class="cls-1" d="M598.25,252.76c-8.19,2.72-15.28,4.24-22.66,4.16-2.1-.02-2.29,1.91-2.74,3.48-5.19,18.11-14.72,33.64-28.36,46.56-5.53,5.24-12.17,8.58-20.09,8.42-10.4-.2-15.35-4.83-16.37-15.19-.13-1.29,.37-2.7-.62-3.94-1.8,.24-2.61,1.81-3.75,2.86-4.87,4.5-9.57,9.21-15.57,12.26-5.6,2.85-11.35,3.42-17.27,1.18-3.56-1.35-5.01-3.96-4.2-7.72,.92-4.26,2.49-8.3,4.41-12.19,3.66-7.4,7.44-14.73,11.13-22.11,.71-1.42,1.81-2.71,1.84-4.42-1.11-.95-2.1-.11-3.05,.17-2.98,.89-5.88,2.36-8.91,2.72-6.66,.8-11.35,3.09-10.78,10.86-7.63,12.5-13.8,26.24-27.64,33.57-4.82,2.55-9.96,3.16-15.33,1.33-4.06-1.39-5.89-4.04-5.7-8.24,.23-4.87,2.31-9.16,4.29-13.45,3.96-8.59,9.47-16.08,16.74-22.18,4.66-3.9,9.96-6.53,16.13-6.98,12.49-.91,24.13-4.65,35.18-10.39,2.16-1.12,4.33-2.26,6.57-3.2,1.73-.73,3.56-1.45,5.4-1.66,3.72-.42,7.67,.07,10.2,2.82,2.57,2.81-.01,5.9-1.35,8.58-4.42,8.83-9.01,17.58-13.5,26.38-1.14,2.23-2.15,4.53-2.53,7.21,4.89-5.2,9.78-10.4,14.68-15.59,1.77-1.87,3.52-3.75,5.37-5.53,4.43-4.26,9.64-5.15,15.41-3.4,3.51,1.07,5.09,3.09,4.21,6.99-1.59,6.98-3.35,13.96-3.29,21.2,.02,1.99-.57,4.78,1.29,5.58,2.04,.87,3.4-1.77,4.64-3.19,10.96-12.59,19.97-26.27,23.27-43.03,1.18-5.98,3.91-8.47,9.99-9.48,2.42-.4,4.9-.74,7.27-.15,7.7,1.9,14.44-.67,20.95-4.24,3.67-2.02,7.15-4.38,10.74-6.56,4.56-2.76,9.31-3.35,14.38-1.42,4.15,1.58,5.1,3.16,3.63,7.45-1.94,5.64-4.67,10.95-7.29,16.29-.47,.96-.89,1.94-.85,3.51,2.46-1.7,4.9-3.43,7.39-5.08,10.17-6.77,20.69-12.85,32.47-16.46,6.25-1.91,12.43-2.31,18.69,.09,6.3,2.42,8.45,5.95,7.31,12.56-.96,5.51-2.91,10.72-5.22,15.76-5.24,11.44-10.66,22.8-15.98,34.2-.96,2.05-.91,4.2-1.07,6.46-.45,6.28-3.15,12.22-8.33,16-4.73,3.45-10.28,2.84-15.43,.12-3.1-1.64-2.21-4.33-1.42-6.78,2.9-9.05,7.05-17.57,11.07-26.15,5.56-11.87,12.04-23.35,15.87-35.98,.61-2,2.2-4.56,.43-6.1-1.83-1.6-4.02,.59-5.85,1.48-21.03,10.24-38.39,25.15-53.83,42.47-3.33,3.74-6.48,7.63-9.67,11.49-4.38,5.29-13.03,6.62-18.83,3.02-2.78-1.72-1.59-3.54-.54-5.5,7.92-14.64,15.84-29.28,23.73-43.94,1.01-1.88,1.85-3.85,3.34-6.95Z"/><path class="cls-1" d="M403.61,249.37c-8.4,.16-16.12,1.36-23.86,2.33-3.25,.41-6.48,.57-9.63-.53-1.29-.45-2.77-.87-2.95-2.44-.21-1.81,1.34-2.49,2.64-3.2,1.93-1.05,4.04-1.54,6.18-1.91,10.41-1.78,20.89-3.09,31.43-3.78,2.97-.2,4.99-1.25,6.76-3.67,9.01-12.35,18.14-24.62,27.28-36.88,4.51-6.06,9.88-7.73,16.31-5.26,4.02,1.55,4.59,3.03,2.31,6.71-6.56,10.6-12.02,21.81-18.08,32.68-1.51,2.71-1.83,3.95,2.13,3.71,5.9-.36,11.88-1.56,17.74,.35,1.87,.61,4.48,.7,4.68,3.19,.22,2.72-2.43,3.31-4.38,4.08-4.53,1.8-9.49,1.5-14.05,1.18-9.73-.68-14.73,3.24-18.89,12.09-13.65,29.01-28.53,57.44-43.74,85.68-2.7,5-5.51,9.95-8.39,14.84-3.51,5.96-11.78,8-17.75,4.53-2.64-1.53-1.99-3.47-.87-5.53,4.08-7.47,8.27-14.88,12.21-22.41,8.66-16.55,17.19-33.15,25.75-49.75,.4-.77,1.25-1.49,.59-2.89-4.2,4.57-8.23,9.08-12.38,13.46-8.49,8.96-17.35,17.51-28.22,23.62-8.75,4.92-17.81,8.02-27.89,4.16-6.33-2.43-9.69-7.26-9.42-14.1,.22-5.62,1.96-10.83,4.71-15.76,4.52-8.12,10.01-15.41,17.2-21.39,3.8-3.16,8.06-5.48,12.7-7.06,1.9-.65,3.98-1.18,5.95-1.11,4.6,.18,9.55,.38,12.35,4.73,2.64,4.11,.39,8.18-1.6,11.85-6.21,11.47-16.22,17.81-28.69,20.69-1.91,.44-4.01,.33-4.62,3.07-.78,3.45-1,6.82,1.02,9.77,1.38,2.02,3.21,.48,4.66-.36,7.55-4.36,14.27-9.84,20.32-16.08,13.87-14.3,26.54-29.63,38.56-45.5,.62-.82,1.1-1.76,1.95-3.13Z"/><path class="cls-1" d="M306.45,282.3c-7.14,4.29-12.57,10.09-17.71,16.13-6.23,7.32-12.02,14.96-16.1,23.79-2.33,5.05-12.58,6.64-16.91,2.96-2.08-1.77-1.12-3.63-.23-5.49,4.85-10.15,9.18-20.49,11.77-31.49,.43-1.82,.69-3.67,1.09-5.78-2.23-.03-3.14,1.47-4.26,2.45-14.55,12.63-25.86,27.96-36.39,43.93-3.89,5.9-9.57,7.75-16.14,5.33-3.93-1.45-4.3-2.43-2.59-6.38,5.64-13.03,11.75-25.87,16.81-39.15,.37-.98,1.11-1.88,.85-3.1-1.22-.82-2.01,.29-2.86,.75-4.2,2.25-8.52,4.26-13.28,4.82-2.96,.35-4.11,1.84-4.77,4.55-2.2,9.11-5.15,17.97-10.24,25.93-4.26,6.67-9.65,12.01-17.62,14.1-2.66,.7-5.35,.83-8.05,.43-8.91-1.32-13.02-6.8-10.72-15.47,3.87-14.62,11.56-26.78,24.87-34.69,5-2.97,10.44-4.34,16.36-3.01,4.02,.9,7.76-.24,11.3-2.2,6.31-3.48,11.72-8.24,17.65-12.27,4.81-3.27,9.82-4.13,15.39-2.07,3.4,1.26,4.81,3.37,3.91,6.85-.84,3.24-1.86,6.42-3.03,10.42,4.77-4.09,9.01-7.62,13.71-10.49,5.05-3.08,10.35-5.39,16.5-4.16,8.27,1.67,9.55,3.01,10.86,11.74,1.98-1.54,3.74-2.91,5.49-4.28,4.92-3.85,10.07-7.3,15.84-9.78,5.12-2.19,10.18-2.34,15.34-.09,3.54,1.54,4.88,4.05,4.05,7.79-1.27,5.74-3.99,10.91-6.36,16.21-8.13,18.14-18.27,35.35-25.19,54.05-.96,2.58-2.48,5.01-1.47,8.14,.58,1.82-1.38,2.81-2.89,3.38-4.24,1.6-8.52,1.43-12.67-.3-3.44-1.44-3.27-4.21-2.29-7.18,3.51-10.55,8.03-20.67,12.93-30.63,5.32-10.8,10.58-21.63,15.84-32.46,.51-1.06,.82-2.21,1.22-3.32Zm-119.28,17.43c-6.23,5.64-11.98,18.67-10.59,23.38,5.54-7.03,8.55-14.99,10.59-23.38Z"/><path class="cls-1" d="M142.65,282.78c-15.42,3.01-30.41,6.54-45.15,11.13-2.33,.73-2.86,2.62-3.58,4.53-6.98,18.48-13.93,36.97-21.01,55.42-2.76,7.18-8.76,9.57-15.97,6.89-3.12-1.16-3.78-2.89-2.6-5.94,5.96-15.39,11.82-30.83,17.71-46.25,.34-.88,.63-1.79,.98-2.67,.8-2.01,.63-3.47-1.97-3.66-.4-.03-.82-.09-1.19-.23-1.75-.63-4.03-.85-4.29-3.14-.26-2.26,1.91-3.03,3.41-4.13,.22-.16,.46-.33,.71-.38,8.33-1.84,10.98-8.31,13.48-15.47,6.97-19.93,15.32-39.33,22.98-59,2.11-5.42,11.3-6.59,15.66-2.51,1.89,1.77,.8,4.16,.06,6.13-3.43,9.26-7.01,18.47-10.5,27.71-3.54,9.37-7.04,18.75-10.52,28.14-.36,.97-1.27,2.11-.5,3.04,.97,1.18,2.29,.16,3.38-.14,13.07-3.56,26.23-6.7,39.56-9.06,3.3-.58,5.06-2.12,6.37-5.26,7.84-18.86,15.92-37.63,23.91-56.43,.42-.99,.91-1.99,1.13-3.04,1.52-7.23,10.58-10.37,16.33-5.63,2.31,1.91,1.43,4.19,.59,6.32-3.2,8.05-6.48,16.06-9.76,24.08-4.14,10.15-8.32,20.28-12.46,30.43-1.86,4.56-1.82,4.55,2.92,4.62,2.18,.03,4.31,.52,6.3,1.39,1.31,.57,3.04,1,2.97,2.9-.06,1.72-1.55,2.44-2.86,3.14-2.56,1.38-5.42,1.91-8.23,2-5.45,.17-8.17,2.79-10.22,7.88-10.63,26.36-21.52,52.6-30.72,79.51-2.45,7.17-11.3,9.99-17.6,5.84-2.57-1.69-2.93-7.82-.11-11.09,2.04-2.37,3.13-5.01,4.06-7.82,7.31-22.13,16.76-43.41,25.68-64.91,.5-1.2,1.41-2.33,1.06-4.34Z"/></g><g><path class="cls-1" d="M590.98,23.28c-6.05-2.35-11.64-1.09-15.6,4.05-3.74,4.81-6.96,9.98-9.79,15.39-7.73,14.83-21.41,29.29-30.29,37.43-6.6,6.05-18.51,15.51-31.04,17.95-1.31,.25-2.64,.77-3.77,1.49-12.81,7.97-21.14,19.31-24.11,34.11-1.76,8.84,2.41,15.05,11.01,17.78,9.25,2.94,17.63,.86,25.06-5.24,1.34-1.09,2.53-2.32,3.71-3.58,.22,.85,.52,1.77,.88,2.79,1.25,3.56,1.15,6.78-.03,10.24-3.89,11.28-7.14,22.72-9.97,34.31-3.07,12.63-5.48,25.42-5.05,38.52,.39,11.83,8.14,17.06,19.19,13.19,3.17-1.13,5.6-3.2,7.57-5.9,3.22-4.43,5.44-9.33,6.97-14.57,5.24-17.89,5.07-36.16,2.73-54.34-1.34-10.28-1.79-19.97,2.89-29.53,1.34-2.77,2.68-4.62,5.78-5.48,5.99-1.67,11.79-3.98,17.39-6.7,1.46-.72,3.04-1.68,2.85-3.59-.19-1.97-2.1-2.29-3.61-2.83-4.17-1.5-8.24-.82-12.26,.79-.8,.33-1.79,1.15-2.61,.36-.82-.8-.06-1.82,.28-2.64,2.44-6,4.87-12.04,7.46-18,9.24-21.2,17.89-42.7,32.32-61.19,1.97-2.53,3.25-5.6,4.72-8.49,1.56-3.08,.49-5.05-2.7-6.29Zm-91.99,117.68c-2.58,2.88-4.19,2.49-5.24-1.21-.95-3.35-.57-6.7,.46-9.97,1.91-6.11,4.86-11.68,8.98-16.61,.74-.89,1.33-2.53,2.56-2.32,1.56,.24,1.94,2.12,2.4,3.41,.48,1.34,.31,2.91,.42,4.19-1.03,8.6-3.86,16.2-9.58,22.51Zm42.42-48.35c-4.57,11.13-9.18,22.25-13.72,33.4-.79,1.97-2.44,2.74-4.16,3.62-.39,.19-.77,.39-1.13,.58,.06-.07,.13-.16,.19-.22,.83-3.17,1.58-6.21,2.09-9.27,.16-2.52,.57-5.14-.07-7.7-1.89-7.48-4.69-8.67-4.69-8.67,0,0,7.88-5.2,10.52-6.91,2.79-1.77,8.66-5.41,11.26-6.93-.16,1.33-.13,1.74-.28,2.1Z"/><path class="cls-1" d="M311.17,110.92c4.4-4.38,8.18-9.41,13.45-12.87,6.42-4.22,13.06-7.19,20.95-4.11,6.32,2.46,10.35,10.36,8.28,16.85-2.3,7.22-4.69,14.41-6.19,21.86-.34,1.67-1.02,3.35-.13,5.49,2.29-1.78,3.7-4.06,5.23-6.17,6.5-8.99,12.88-18.07,19.42-27.04,3.84-5.27,8.59-6.89,14.54-5.31,4.8,1.28,5.66,2.79,3.98,7.69-1.98,5.76-3.99,11.52-5.26,17.48-.73,3.43-1.22,6.92-1.66,10.4-.14,1.11-.67,2.71,.75,3.26,1.08,.42,1.87-.86,2.66-1.55,6.25-5.48,11.4-11.94,16.26-18.62,11.87-16.34,21.92-33.82,31.9-51.34,.38-.67,.61-1.44,1.21-2.88-3.98,.96-7.36,1.72-10.7,2.6-4.84,1.28-9.65,2.66-14.49,3.97-2.36,.64-4.8,1.22-7.21,.85-2.43-.37-5.97-.26-6.34-3.2-.37-2.9,3.15-3.33,5.31-4.04,11.82-3.93,23.83-7.23,36.04-9.73,2.88-.59,4.71-1.95,6.28-4.47,9.3-14.93,18.76-29.76,28.22-44.59,3.38-5.3,10.68-6.96,16.18-3.94,3.33,1.83,2.28,4.11,.84,6.46-5.88,9.58-11.14,19.5-16.42,29.42-1.27,2.39-2.45,4.83-3.64,7.26-.35,.71-1.01,1.48-.54,2.26,.64,1.06,1.7,.49,2.57,.29,6.74-1.5,13.49-2.93,20.03-5.18,4.19-1.44,8.44-1.94,12.7-.22,1.46,.59,3.45,.79,3.49,2.86,.04,1.92-1.67,2.72-3.16,3.32-2.37,.97-4.79,1.91-7.28,2.5-9.61,2.28-19.21,4.63-28.91,6.52-4.24,.83-6.83,2.65-8.81,6.6-14.56,29.06-27.37,58.89-39.79,88.91-7.03,17-13.91,34.08-20.89,51.1-2.85,6.95-10.93,9.68-17.46,6.02-2.28-1.27-2.31-3.01-1.43-5.17,8.96-21.91,17.9-43.84,26.84-65.76,.5-1.22,.9-2.47,1-4-3.43,3.19-6.83,6.31-10.52,9.08-4.51,3.39-9.31,6.07-15.12,6.27-10.09,.34-13.38-1.74-17.57-11.35-2.11,2.47-4.07,4.81-6.08,7.1-3.14,3.58-6.46,6.94-10.83,9.04-3.39,1.63-6.96,2.19-10.67,1.57-6.48-1.09-9.15-4.13-9.36-10.71-.06-1.73,.1-3.47,.19-6.33-3.34,2.9-5.85,5.17-8.45,7.34-5.39,4.5-11.41,7.22-18.65,6.3-7.71-.97-10.31-4.63-7.92-11.93,2.93-8.95,7.77-16.94,13.2-24.58,1.33-1.87,2.66-3.75,3.99-5.62l-.04,.04Zm2.49,24.09c8.61-8.73,15.7-18.68,23.02-28.44,.5-.67,.78-1.62-.03-2.16-.81-.54-1.52,.23-2.09,.77-9.06,8.46-15.88,18.51-20.89,29.83Z"/><path class="cls-1" d="M76.2,47.9c5.44-4.47,10.02-8.43,14.81-12.11,12.19-9.36,25.02-17.56,40.08-21.64,7.83-2.13,15.53-2.04,23.02,1.3,7.42,3.32,10.12,8.82,8.33,16.79-1.82,8.11-5.98,15.06-10.97,21.52-8.34,10.81-18.4,19.75-29.97,27.03-17.77,11.19-36.88,14.06-57.25,9.58-6.23-1.37-6.52-1.54-9.38,4.3-6.08,12.38-11.79,24.94-17.72,37.39-5.99,12.58-12.04,25.12-18.09,37.67-2.93,6.07-8.18,8.28-14.74,6.29-4.14-1.26-5.14-2.79-3.66-6.89,2.93-8.14,5.82-16.32,9.27-24.25,7.77-17.88,16.61-35.2,27.58-51.39,3.08-4.55,6.13-9.28,6.12-15.17,0-.63,.32-1.36,.72-1.87,7.15-9.03,10.15-20.24,15.74-30.09,2.64-4.65,5.82-6.29,11.04-5.28,3.25,.63,6.18,1.57,5.08,6.8Zm3.95,36.04c10.73,.15,20.3-3.19,29.09-9.01,14.7-9.73,27.01-21.64,34.21-38.1,1.41-3.23,2.37-6.67,1.74-10.26-.7-4.02-2.56-5.35-6.55-4.65-3.62,.64-7.03,2.02-10.29,3.67-24.8,12.54-44.05,31.57-61.52,52.67-1.67,2.01-1.04,3.17,1.34,3.6,3.99,.72,7.99,1.38,11.98,2.07Z"/><path class="cls-1" d="M164.3,108.32c6.83-5.66,14.7-8.81,23.64-9.22,1.77-.08,3.5-.13,5.24,.22,2.71,.55,5.24,.46,7.86-.86,3.46-1.74,7.12-1.17,10.61,.29,2.17,.91,2.67,2.41,1.65,4.58-1.83,3.9-5.17,5.49-9.14,5.72-3.09,.18-6.33,.31-9.29-.42-7.59-1.89-13.11,1.26-18.13,6.35-7.69,7.79-13.27,17.07-18.67,26.44-4.26,7.38-8.14,14.97-12.24,22.45-3.13,5.71-11.76,7.73-17.31,4.17-2.45-1.57-1.78-3.59-1.14-5.73,4.18-14.01,9.45-27.64,14.44-41.37,.92-2.54,1.71-5.13,2.62-7.68,.81-2.27-.03-2.66-2.09-2.07-5.5,1.59-11.09,2.58-16.83,1.98-3.34-.35-4.59,.83-4.54,4.22,.2,14.03-5.32,26.11-13.55,37.02-4.76,6.31-10.54,11.65-18.3,14.26-5.14,1.73-10.33,2.1-15.51,.18-6.87-2.55-10.52-8.68-8.61-15.81,5.61-20.92,18.35-36.33,36.95-47.24,6.28-3.68,12.04-4.45,19.16-1.72,6.1,2.35,12.86,1.01,18.72-2.6,1.96-1.21,3.83-2.55,5.76-3.8,2.29-1.48,4.73-2.6,7.48-2.96,8.57-1.14,12.61,3.06,11.01,11.47-.12,.62-.55,1.25,.21,2.12Zm-59.87,9.65c-1.02,.43-1.46,.49-1.71,.73-9.3,8.91-16.64,19.11-20.56,31.53-.74,2.35-.82,4.8-.57,7.22,.22,2.17,1.29,2.86,3.27,1.5,2.04-1.39,3.66-3.21,5.2-5.08,8.46-10.27,13.61-21.87,14.37-35.92Z"/><path class="cls-1" d="M267.88,55.42c3.59-.63,7.15-1.23,10.7-1.87,3.47-.63,6.72,.12,9.84,1.59,2.78,1.3,2.68,3.17,.78,5.12-2.62,2.7-6.01,3.49-9.65,3.5-2.16,0-4.36-.23-6.48,.07q-11.65,1.69-17.28,12.32c-17.18,32.43-32.85,65.55-46.27,99.73-.84,2.14-1.92,4.19-2.68,6.35-2.74,7.74-12.08,8.2-17.48,5.28-1.26-.68-2.45-1.67-2.21-3.12,.7-4.23,1.07-8.69,4.52-11.84,1.25-1.15,2.09-2.42,2.7-3.95,12.62-31.87,27.68-62.59,43.97-92.72,.19-.36,.42-.7,.57-1.07,.39-.97,1.55-1.94,.86-2.94-.73-1.06-2.01-.28-3.02-.07-7.03,1.44-14.03,2.97-21.07,4.34-3.84,.75-7.72,1.55-11.66,1.34-1.73-.09-3.47-.49-5.16-.92-1.2-.3-2.39-.95-2.57-2.31-.22-1.67,1.13-2.41,2.38-2.88,2.01-.76,4.08-1.5,6.19-1.88,12.79-2.31,25.34-5.71,38.04-8.43,3.08-.66,4.87-2.37,6.35-5.05,4.7-8.53,9.57-16.97,14.45-25.4,2.89-4.99,7.28-6.69,12.77-5.16,4.36,1.22,5.3,3.11,3.13,7.16-3.38,6.32-6.99,12.52-10.45,18.81-.61,1.12-1.7,2.14-1.28,4Z"/><path class="cls-1" d="M625.6,129.13c-3.71,2.87-6.83,5.61-10.28,7.87-5.83,3.81-12.13,5.32-18.89,2.49-4.13-1.73-6.34-5.12-5.17-9.38,4.55-16.59,13.28-30.55,27.95-39.96,7.24-4.65,14.92-4.35,21.71,1.72,.96,.85,2.11,1.14,3.28,1.49,5.43,1.65,6.5,3.11,5.44,8.97-1.43,7.85-3.32,15.61-4.88,23.44-1.42,7.16-2.73,14.35-3.92,21.56-.57,3.44-1.63,6.16-5.42,7.21-4.3,1.19-8.32,.98-12.01-1.63-1.58-1.12-1.19-2.84-.92-4.48,1.03-6.24,2.02-12.49,3.11-19.3Zm-15.66-4c6.36-7.91,14.39-14.73,16.44-25.44-7.65,7.07-13.45,15.34-16.44,25.44Z"/><path class="cls-1" d="M311.21,110.88c-4.07,1.48-8.11,3.19-12.56,1.34-1.68-.7-3.27-1.41-3.61-3.45-.59-3.46-2.3-2.93-4.52-1.41-10.02,6.87-17.42,16.13-24.06,26.1-3.98,5.98-7.28,12.35-10.49,18.76-2.98,5.95-11.19,8.03-16.66,4.25-1.71-1.18-1.63-2.64-1.07-4.28,5.56-16.54,11.04-33.11,16.73-49.6,1.88-5.45,11.46-7.04,15.2-2.77,1.98,2.26-.44,4.65,.3,7.31,2.55-1.82,4.86-3.63,7.33-5.2,7.39-4.71,15.12-7.85,24.15-5.16,7.42,2.21,10.83,7.31,9.22,14.16,0,0,.04-.04,.04-.04Z"/><path class="cls-1" d="M391.45,76.85c2.08,.54,5.01,.24,6.12,3.24,.77,2.08-2.23,7.68-4.81,9.34-3.75,2.42-11.08,2.09-12.94-.58-1.38-1.99,2.22-8.58,5.85-10.64,1.68-.95,3.48-1.49,5.78-1.36Z"/></g></g></g></svg>