<?xml version="1.0" encoding="UTF-8"?><svg id="Layer_2" xmlns="http://www.w3.org/2000/svg" viewBox="0 0 877.86 163.61"><defs><style>.cls-1{fill:#f1f2f2;}</style></defs><g id="Layer_1-2"><path class="cls-1" d="M399.42,17.74c-4.01-1.7-7.79-.96-10.55,2.41-2.6,3.15-4.87,6.56-6.87,10.13-5.48,9.79-14.94,19.23-21.06,24.51-4.55,3.93-12.72,10.04-21.18,11.43-.88,.14-1.78,.47-2.56,.92-8.75,5.09-14.57,12.54-16.85,22.4-1.35,5.89,1.32,10.14,7.03,12.14,6.15,2.15,11.81,.93,16.92-3.02,.92-.7,1.75-1.51,2.56-2.33,.13,.57,.31,1.2,.53,1.89,.77,2.41,.64,4.57-.22,6.87-2.83,7.49-5.24,15.1-7.37,22.82-2.31,8.42-4.18,16.94-4.15,25.74,.03,7.94,5.12,11.61,12.61,9.23,2.15-.7,3.82-2.04,5.19-3.81,2.25-2.9,3.83-6.15,4.97-9.64,3.87-11.9,4.12-24.16,2.91-36.4-.7-6.92-.8-13.43,2.52-19.75,.95-1.83,1.89-3.05,3.99-3.56,4.05-1,7.99-2.44,11.8-4.15,.99-.45,2.07-1.07,1.98-2.35-.09-1.32-1.36-1.58-2.36-1.97-2.77-1.09-5.51-.71-8.24,.29-.55,.2-1.22,.73-1.76,.19-.53-.56,0-1.22,.24-1.76,1.76-3.98,3.51-7.98,5.36-11.93,6.62-14.04,12.85-28.29,22.89-40.41,1.37-1.66,2.29-3.69,3.34-5.6,1.11-2.04,.43-3.38-1.68-4.27Zm-64.04,77.12c-1.79,1.88-2.86,1.59-3.49-.91-.57-2.27-.25-4.51,.51-6.68,1.4-4.06,3.49-7.74,6.36-10.97,.52-.58,.94-1.67,1.77-1.51,1.04,.19,1.26,1.46,1.54,2.34,.29,.91,.15,1.96,.2,2.82-.86,5.75-2.91,10.79-6.87,14.91Zm29.42-31.6c-3.29,7.38-6.6,14.74-9.87,22.14-.57,1.3-1.69,1.79-2.86,2.35-.26,.12-.53,.24-.77,.37,.04-.05,.09-.11,.13-.15,.62-2.11,1.18-4.14,1.58-6.18,.16-1.69,.48-3.44,.1-5.17-1.12-5.06-2.98-5.91-2.98-5.91,0,0,5.39-3.33,7.19-4.43,1.9-1.13,5.91-3.46,7.69-4.42-.14,.89-.12,1.17-.23,1.4Z"/><path class="cls-1" d="M822.77,48.65c-5.55,1.66-10.34,2.54-15.28,2.34-1.41-.06-1.58,1.24-1.91,2.28-3.84,12.05-10.54,22.27-19.95,30.67-3.81,3.4-8.33,5.51-13.65,5.25-6.97-.34-10.2-3.55-10.68-10.52-.06-.87,.3-1.81-.34-2.66-1.21,.13-1.79,1.16-2.57,1.84-3.36,2.92-6.6,5.99-10.69,7.92-3.81,1.8-7.69,2.07-11.61,.45-2.36-.98-3.28-2.76-2.67-5.26,.7-2.84,1.84-5.52,3.2-8.09,2.6-4.89,5.28-9.74,7.91-14.61,.51-.94,1.27-1.78,1.32-2.93-.73-.66-1.4-.12-2.05,.06-2.02,.54-3.99,1.46-6.03,1.65-4.48,.4-7.68,1.85-7.44,7.07-5.36,8.24-9.78,17.33-19.21,21.97-3.29,1.62-6.75,1.92-10.31,.59-2.7-1.01-3.87-2.83-3.66-5.64,.25-3.26,1.73-6.1,3.14-8.94,2.83-5.69,6.67-10.6,11.67-14.55,3.2-2.53,6.81-4.18,10.96-4.36,8.4-.36,16.28-2.64,23.81-6.28,1.47-.71,2.95-1.43,4.47-2.02,1.18-.45,2.42-.9,3.66-1.01,2.51-.21,5.14,.2,6.78,2.1,1.67,1.94-.13,3.96-1.08,5.73-3.14,5.84-6.39,11.62-9.58,17.43-.81,1.47-1.53,2.99-1.84,4.79,3.38-3.39,6.76-6.78,10.16-10.17,1.22-1.22,2.44-2.45,3.71-3.6,3.05-2.77,6.57-3.27,10.41-1.98,2.33,.78,3.35,2.18,2.68,4.77-1.2,4.65-2.53,9.3-2.63,14.16-.03,1.33-.48,3.2,.76,3.77,1.35,.63,2.31-1.12,3.17-2.05,7.6-8.23,13.91-17.23,16.46-28.41,.91-3.99,2.79-5.61,6.89-6.16,1.63-.22,3.31-.4,4.88,.04,5.12,1.43,9.7-.16,14.14-2.43,2.5-1.28,4.89-2.8,7.34-4.19,3.11-1.76,6.31-2.06,9.67-.67,2.76,1.14,3.36,2.22,2.29,5.07-1.41,3.75-3.35,7.25-5.21,10.79-.33,.63-.63,1.29-.64,2.34,1.69-1.09,3.36-2.2,5.06-3.26,6.96-4.34,14.14-8.21,22.11-10.4,4.23-1.16,8.39-1.31,12.54,.43,4.18,1.75,5.55,4.16,4.65,8.57-.75,3.68-2.17,7.13-3.81,10.47-3.74,7.57-7.6,15.08-11.4,22.63-.68,1.36-.69,2.8-.85,4.31-.43,4.21-2.36,8.13-5.91,10.57-3.24,2.22-6.95,1.7-10.35-.23-2.05-1.16-1.39-2.95-.82-4.58,2.13-6.01,5.08-11.65,7.94-17.32,3.97-7.86,8.54-15.43,11.36-23.82,.45-1.33,1.57-3.02,.41-4.09-1.2-1.11-2.71,.31-3.95,.87-14.31,6.45-26.25,16.11-36.95,27.42-2.31,2.44-4.5,4.99-6.72,7.52-3.04,3.46-8.87,4.18-12.69,1.65-1.83-1.21-1-2.41-.25-3.7,5.6-9.67,11.21-19.33,16.79-29.01,.72-1.24,1.32-2.55,2.38-4.6Z"/><path class="cls-1" d="M209.97,70.99c3.04-2.85,5.67-6.15,9.28-8.37,4.39-2.7,8.9-4.57,14.14-2.34,4.19,1.78,6.74,7.16,5.22,11.47-1.69,4.8-3.43,9.58-4.59,14.54-.26,1.11-.75,2.23-.19,3.68,1.57-1.15,2.56-2.65,3.63-4.04,4.54-5.9,9-11.87,13.56-17.75,2.68-3.46,5.9-4.45,9.86-3.27,3.2,.95,3.74,1.99,2.52,5.24-1.44,3.83-2.9,7.65-3.88,11.62-.56,2.29-.96,4.62-1.32,6.94-.12,.74-.5,1.8,.44,2.2,.72,.31,1.27-.54,1.82-.99,4.3-3.55,7.89-7.78,11.27-12.17,8.29-10.73,15.38-22.26,22.42-33.81,.27-.44,.44-.95,.87-1.91-2.69,.57-4.97,1.01-7.23,1.53-3.27,.76-6.53,1.59-9.8,2.37-1.6,.38-3.24,.72-4.85,.43-1.63-.3-4-.29-4.19-2.27-.19-1.95,2.18-2.17,3.64-2.61,8.01-2.4,16.13-4.38,24.37-5.81,1.94-.34,3.2-1.21,4.3-2.87,6.54-9.83,13.17-19.59,19.82-29.35,2.38-3.49,7.3-4.46,10.93-2.32,2.19,1.29,1.45,2.8,.43,4.35-4.13,6.31-7.86,12.86-11.6,19.41-.9,1.58-1.74,3.19-2.58,4.8-.25,.47-.71,.97-.41,1.51,.41,.72,1.13,.36,1.72,.25,4.55-.87,9.11-1.7,13.54-3.08,2.84-.88,5.7-1.14,8.52,.11,.97,.43,2.3,.6,2.29,1.99-.01,1.29-1.18,1.79-2.18,2.17-1.61,.6-3.25,1.18-4.93,1.53-6.49,1.34-12.98,2.73-19.52,3.8-2.86,.47-4.63,1.64-6.04,4.25-10.34,19.21-19.53,38.97-28.46,58.86-5.06,11.27-10,22.59-15.03,33.87-2.05,4.6-7.52,6.28-11.83,3.69-1.5-.9-1.49-2.07-.86-3.5,6.45-14.52,12.88-29.05,19.31-43.59,.36-.81,.65-1.64,.75-2.66-2.37,2.07-4.71,4.1-7.24,5.89-3.09,2.18-6.36,3.89-10.27,3.9-6.77,.03-8.94-1.43-11.56-7.96-1.47,1.61-2.83,3.15-4.22,4.64-2.18,2.34-4.47,4.53-7.45,5.85-2.31,1.03-4.71,1.33-7.19,.84-4.32-.86-6.05-2.95-6.07-7.37,0-1.16,.13-2.33,.25-4.24-2.3,1.88-4.03,3.35-5.81,4.75-3.71,2.91-7.8,4.61-12.64,3.86-5.15-.8-6.82-3.31-5.07-8.16,2.14-5.94,5.55-11.21,9.34-16.23,.93-1.23,1.86-2.46,2.79-3.69l-.03,.02Zm1.19,16.21c5.95-5.69,10.9-12.22,16.01-18.62,.35-.44,.56-1.07,.02-1.45-.54-.38-1.02,.12-1.42,.47-6.25,5.5-11.02,12.1-14.61,19.6Z"/><path class="cls-1" d="M692.26,42.52c-5.64-.06-10.84,.59-16.05,1.09-2.19,.21-4.36,.25-6.45-.55-.85-.32-1.84-.64-1.93-1.69-.11-1.22,.95-1.64,1.84-2.1,1.31-.67,2.74-.95,4.18-1.16,7.02-.99,14.08-1.66,21.16-1.91,1.99-.07,3.37-.74,4.6-2.33,6.29-8.11,12.66-16.16,19.03-24.2,3.15-3.97,6.78-4.99,11.04-3.21,2.67,1.12,3.02,2.12,1.42,4.55-4.61,6.98-8.49,14.39-12.77,21.56-1.07,1.79-1.31,2.61,1.35,2.53,3.97-.12,8-.81,11.9,.58,1.24,.45,2.99,.56,3.08,2.23,.09,1.83-1.69,2.17-3.02,2.65-3.08,1.12-6.4,.82-9.45,.52-6.51-.65-9.95,1.88-12.92,7.74-9.73,19.19-20.28,37.97-31.04,56.61-1.91,3.3-3.89,6.56-5.92,9.79-2.47,3.93-8.06,5.13-12,2.69-1.74-1.08-1.27-2.37-.47-3.73,2.88-4.93,5.84-9.82,8.64-14.79,6.14-10.93,12.19-21.9,18.26-32.87,.28-.51,.87-.97,.45-1.93-2.91,2.98-5.7,5.93-8.57,8.78-5.87,5.84-11.99,11.4-19.4,15.29-5.97,3.13-12.11,5.03-18.79,2.24-4.2-1.76-6.36-5.06-6.04-9.65,.26-3.76,1.53-7.23,3.47-10.48,3.19-5.36,7.02-10.14,11.96-14.01,2.61-2.05,5.52-3.51,8.66-4.48,1.29-.4,2.69-.72,4.01-.63,3.08,.21,6.4,.44,8.19,3.42,1.69,2.81,.1,5.5-1.31,7.92-4.4,7.57-11.24,11.63-19.66,13.31-1.29,.26-2.69,.14-3.16,1.96-.59,2.3-.8,4.55,.49,6.58,.89,1.38,2.15,.39,3.14-.15,5.15-2.78,9.77-6.32,13.95-10.39,9.59-9.32,18.39-19.35,26.77-29.76,.44-.54,.77-1.16,1.37-2.06Z"/><path class="cls-1" d="M626.43,62.69c-4.88,2.73-8.63,6.52-12.2,10.47-4.33,4.79-8.36,9.8-11.27,15.64-1.66,3.34-8.57,4.21-11.41,1.65-1.36-1.23-.68-2.45-.05-3.69,3.46-6.71,6.57-13.57,8.52-20.89,.32-1.21,.54-2.45,.84-3.85-1.5-.06-2.13,.93-2.91,1.56-10.01,8.19-17.9,18.25-25.29,28.75-2.73,3.88-6.58,5.01-10.93,3.26-2.61-1.05-2.84-1.71-1.61-4.33,4.04-8.63,8.39-17.12,12.05-25.93,.27-.65,.78-1.24,.63-2.06-.8-.57-1.35,.16-1.93,.45-2.86,1.42-5.8,2.69-9,2.97-1.99,.18-2.79,1.15-3.29,2.96-1.66,6.07-3.81,11.95-7.38,17.2-2.99,4.39-6.71,7.86-12.1,9.11-1.8,.42-3.61,.45-5.41,.13-5.95-1.06-8.6-4.82-6.88-10.59,2.89-9.73,8.28-17.73,17.37-22.78,3.41-1.89,7.09-2.7,11.04-1.7,2.68,.68,5.21,0,7.62-1.25,4.3-2.21,8.03-5.3,12.09-7.88,3.29-2.1,6.67-2.58,10.36-1.08,2.25,.91,3.16,2.36,2.49,4.67-.63,2.15-1.37,4.27-2.24,6.93,3.28-2.65,6.19-4.93,9.4-6.76,3.45-1.97,7.05-3.41,11.15-2.46,5.51,1.28,6.34,2.21,7.05,8.09,1.36-1,2.56-1.88,3.77-2.77,3.38-2.48,6.9-4.7,10.82-6.24,3.48-1.37,6.87-1.37,10.29,.24,2.35,1.1,3.19,2.81,2.56,5.3-.97,3.82-2.89,7.24-4.59,10.75-5.81,12.01-12.96,23.35-17.97,35.76-.69,1.71-1.76,3.31-1.15,5.43,.36,1.23-.98,1.86-2.01,2.21-2.87,.99-5.75,.79-8.5-.45-2.28-1.03-2.11-2.89-1.39-4.86,2.56-7.01,5.79-13.71,9.28-20.29,3.78-7.14,7.53-14.3,11.27-21.46,.36-.7,.59-1.47,.88-2.2Zm-80.36,9.33c-4.29,3.66-8.41,12.28-7.56,15.47,3.85-4.61,6.03-9.89,7.56-15.47Z"/><path class="cls-1" d="M516.53,59.76c-10.41,1.71-20.53,3.78-30.51,6.57-1.58,.44-1.97,1.7-2.49,2.97-5.05,12.26-10.08,24.53-15.19,36.76-1.99,4.76-6.07,6.25-10.85,4.3-2.07-.84-2.48-2.01-1.63-4.04,4.31-10.21,8.54-20.45,12.8-30.68,.24-.59,.46-1.19,.71-1.77,.58-1.33,.49-2.32-1.25-2.5-.27-.03-.55-.08-.8-.18-1.16-.45-2.69-.65-2.82-2.19-.13-1.52,1.34-2,2.37-2.7,.15-.1,.31-.21,.49-.24,5.62-1.07,7.53-5.35,9.35-10.11,5.07-13.23,11.06-26.08,16.59-39.13,1.52-3.6,7.71-4.2,10.55-1.37,1.23,1.22,.45,2.81-.08,4.12-2.48,6.15-5.07,12.25-7.59,18.38-2.56,6.22-5.09,12.44-7.62,18.67-.26,.65-.89,1.39-.4,2.03,.63,.81,1.54,.15,2.27-.02,8.84-2.13,17.73-3.97,26.72-5.3,2.22-.33,3.44-1.32,4.37-3.4,5.63-12.5,11.43-24.93,17.16-37.39,.3-.66,.65-1.32,.82-2.02,1.16-4.82,7.31-6.75,11.06-3.45,1.51,1.32,.88,2.84,.27,4.25-2.3,5.34-4.67,10.65-7.02,15.96-2.98,6.73-5.99,13.44-8.96,20.17-1.34,3.02-1.31,3.01,1.87,3.16,1.46,.07,2.88,.43,4.2,1.06,.87,.41,2.02,.73,1.93,2-.08,1.16-1.09,1.61-1.98,2.05-1.75,.87-3.68,1.18-5.56,1.18-3.66,0-5.54,1.71-7.01,5.08-7.65,17.47-15.48,34.86-22.18,52.73-1.79,4.76-7.78,6.48-11.92,3.57-1.69-1.18-1.81-5.3,.15-7.44,1.42-1.55,2.2-3.3,2.88-5.17,5.34-14.7,12.1-28.79,18.51-43.04,.36-.8,.99-1.54,.79-2.89Z"/><path class="cls-1" d="M53.58,24.06c3.74-2.89,6.89-5.46,10.18-7.83,8.36-6.04,17.13-11.28,27.32-13.72,5.3-1.27,10.46-1.06,15.41,1.33,4.92,2.37,6.61,6.12,5.26,11.43-1.38,5.4-4.31,9.98-7.79,14.22-5.81,7.09-12.74,12.88-20.64,17.54-12.14,7.16-25.02,8.7-38.6,5.29-4.15-1.04-4.34-1.16-6.38,2.7-4.32,8.18-8.4,16.5-12.63,24.73-4.27,8.32-8.57,16.62-12.88,24.91-2.08,4.01-5.65,5.39-10.02,3.93-2.75-.93-3.39-1.97-2.32-4.69,2.13-5.4,4.23-10.83,6.7-16.08,5.57-11.84,11.84-23.29,19.52-33.93,2.16-2.99,4.29-6.1,4.41-10.05,.01-.42,.24-.91,.52-1.24,4.98-5.92,7.21-13.38,11.16-19.87,1.86-3.07,4.03-4.11,7.51-3.32,2.17,.49,4.12,1.18,3.27,4.66Zm1.94,24.26c7.19,.31,13.68-1.73,19.7-5.47,10.05-6.24,18.55-13.98,23.7-24.88,1.01-2.14,1.72-4.43,1.37-6.85-.39-2.71-1.61-3.64-4.31-3.25-2.44,.36-4.76,1.22-6.98,2.26-16.88,7.92-30.18,20.31-42.31,34.12-1.16,1.32-.76,2.1,.83,2.44,2.66,.56,5.33,1.08,8,1.62Z"/><path class="cls-1" d="M111.49,66.34c4.7-3.66,10.04-5.62,16.04-5.72,1.19-.02,2.35-.02,3.51,.25,1.8,.43,3.5,.41,5.29-.42,2.36-1.1,4.8-.64,7.11,.41,1.44,.65,1.74,1.67,1.02,3.1-1.31,2.58-3.58,3.58-6.24,3.66-2.07,.06-4.25,.08-6.22-.47-5.05-1.42-8.82,.59-12.29,3.9-5.31,5.07-9.24,11.19-13.05,17.37-3,4.87-5.76,9.88-8.65,14.82-2.21,3.77-8.04,4.95-11.69,2.45-1.61-1.1-1.12-2.45-.65-3.87,3.08-9.32,6.89-18.35,10.51-27.47,.67-1.69,1.25-3.41,1.91-5.1,.59-1.5,.03-1.79-1.36-1.43-3.72,.96-7.49,1.51-11.33,1-2.24-.3-3.1,.46-3.13,2.74-.15,9.42-4.09,17.41-9.82,24.57-3.32,4.14-7.3,7.6-12.56,9.2-3.49,1.06-6.97,1.21-10.41-.19-4.56-1.85-6.89-6.03-5.46-10.78,4.18-13.92,13.03-24.01,25.72-30.96,4.28-2.35,8.17-2.75,12.89-.77,4.05,1.7,8.61,.93,12.61-1.37,1.34-.77,2.62-1.63,3.94-2.43,1.57-.95,3.22-1.65,5.08-1.84,5.77-.59,8.4,2.3,7.16,7.91-.09,.42-.4,.83,.1,1.42Zm-40.35,5.29c-.69,.27-.99,.3-1.16,.46-6.42,5.8-11.54,12.49-14.42,20.75-.54,1.56-.64,3.2-.52,4.83,.11,1.46,.81,1.94,2.17,1.07,1.39-.89,2.52-2.08,3.59-3.3,5.88-6.72,9.56-14.4,10.35-23.81Z"/><path class="cls-1" d="M182.02,32.9c2.42-.35,4.82-.68,7.22-1.04,2.34-.35,4.51,.21,6.57,1.26,1.84,.93,1.74,2.18,.42,3.45-1.81,1.76-4.1,2.22-6.54,2.16-1.45-.04-2.92-.24-4.35-.08q-7.85,.9-11.84,7.92c-12.16,21.42-23.34,43.33-33.02,65.99-.61,1.42-1.37,2.77-1.93,4.21-1.99,5.14-8.27,5.26-11.83,3.2-.83-.48-1.61-1.17-1.42-2.14,.55-2.83,.89-5.81,3.27-7.86,.86-.74,1.45-1.58,1.89-2.6,9.1-21.13,19.81-41.44,31.34-61.33,.14-.24,.3-.46,.41-.71,.28-.64,1.08-1.27,.63-1.95-.47-.73-1.34-.23-2.02-.11-4.74,.82-9.47,1.71-14.22,2.5-2.59,.43-5.21,.88-7.85,.67-1.16-.1-2.32-.4-3.45-.72-.8-.22-1.58-.69-1.68-1.6-.12-1.12,.8-1.59,1.65-1.88,1.37-.47,2.77-.92,4.19-1.14,8.63-1.29,17.11-3.33,25.69-4.9,2.08-.38,3.31-1.5,4.36-3.26,3.32-5.63,6.76-11.19,10.2-16.75,2.04-3.29,5.02-4.34,8.67-3.21,2.9,.9,3.49,2.19,1.96,4.86-2.39,4.17-4.94,8.26-7.38,12.41-.43,.74-1.18,1.4-.94,2.66Z"/><path class="cls-1" d="M420.54,89.44c-2.54,1.85-4.69,3.63-7.05,5.07-3.98,2.44-8.24,3.33-12.72,1.3-2.74-1.24-4.15-3.56-3.28-6.39,3.38-11.04,9.52-20.23,19.54-26.25,4.95-2.97,10.09-2.63,14.53,1.58,.63,.59,1.39,.8,2.17,1.07,3.61,1.21,4.3,2.22,3.47,6.12-1.11,5.24-2.54,10.41-3.74,15.63-1.09,4.78-2.12,9.57-3.06,14.38-.45,2.3-1.22,4.1-3.78,4.73-2.91,.71-5.6,.49-8.02-1.33-1.04-.78-.74-1.93-.53-3.02,.81-4.17,1.6-8.34,2.47-12.89Zm-10.43-2.99c4.42-5.18,9.95-9.6,11.53-16.74-5.27,4.59-9.33,10.02-11.53,16.74Z"/><path class="cls-1" d="M210,70.97c-2.76,.92-5.5,1.98-8.45,.65-1.11-.5-2.16-1.01-2.35-2.38-.33-2.33-1.49-2.01-3-1.03-6.86,4.41-12.01,10.48-16.66,17.03-2.79,3.93-5.13,8.14-7.41,12.38-2.12,3.93-7.67,5.16-11.26,2.52-1.12-.83-1.04-1.8-.63-2.89,4.06-10.99,8.06-21.99,12.21-32.95,1.37-3.62,7.83-4.49,10.25-1.56,1.29,1.56-.39,3.11,.06,4.91,1.74-1.17,3.33-2.34,5.02-3.34,5.05-3.01,10.3-4.97,16.31-2.98,4.93,1.63,7.12,5.12,5.9,9.68,0,0,.03-.02,.03-.02Z"/><path class="cls-1" d="M264.5,49.73c1.38,.4,3.36,.26,4.04,2.29,.48,1.41-1.65,5.11-3.41,6.17-2.56,1.55-7.47,1.18-8.67-.65-.89-1.36,1.66-5.71,4.13-7.02,1.14-.61,2.36-.93,3.91-.8Z"/></g></svg>