<?xml version="1.0" encoding="UTF-8"?><svg id="Layer_2" xmlns="http://www.w3.org/2000/svg" viewBox="0 0 604.86 246.69"><defs><style>.cls-1{fill:#fff;}</style></defs><g id="Layer_1-2"><g><path class="cls-1" d="M364.88,75.39c-2.6-2.29-5.83-2.26-8.28,.17-2.53,2.51-5.26,4.75-8.41,6.42-2.73,1.45-3.48,1.07-4.89-1.61-.96-1.81-.05-2.78,1.04-4,5.59-6.27,10.02-13.17,11-21.75,.44-3.75,.02-7.38-3.27-9.85-4.69-3.51-9.3-2.67-12.77,2.63-5.15,7.86-8.08,16.42-6.85,26.02,.16,1.28,.33,2.58-.85,3.52-2,1.58-4.1,3-6.48,3.99-1.37,.57-2.26,.13-2.77-1.25-.45-1.21-.6-2.46-.67-3.74-.25-4.58,.52-9.04,1.62-13.46,1.21-4.94,2.68-9.83,3.29-14.88,.47-3.92-1.77-6.32-5.74-6.61-2.32-.17-4.27,.76-5.97,2.23-2.47,2.15-4.75,4.48-6.83,7.02-.63,.77-1.03,1.81-2.45,2.26,.48-2.34,.8-4.38,.98-6.45,.23-2.75-.93-4.48-3.28-5.69-3.3-1.72-7.56-.99-11.09,2.02-2.27,1.93-4.1,4.27-5.94,6.73-.61-.99-.07-1.75,.03-2.5,.59-4.43-1.62-7.1-6.12-7.31-2.16-.1-4.15,.44-5.98,1.55-2.49,1.5-4.98,3-7.43,4.56-2,1.29-4.04,1.75-6.46,1.26-5.4-1.1-10.1,.15-13.59,4.7-1.43,1.88-2.86,3.76-4.23,5.67-5.16,7.18-10.68,14.03-17.79,19.4-1.6,1.21-3.45,3.33-5.47,2.18-2.02-1.14-1.26-3.88-.91-5.82,1.44-7.98,4.57-15.28,9.66-21.65,.61-.76,1.45-1.39,2.27-1.93,.94-.62,1.8-.49,1.97,.81,.37,2.93,2.64,3.47,4.9,3.85,2.78,.47,4.35-1.3,3.75-4.08-.49-2.26-1.91-3.87-3.84-5.06-5.28-3.27-12.15-2.54-16.62,2.54-6.58,7.47-10.55,16.29-11.09,26.35-.3,5.5,1.96,8.37,7.26,10.12,3.78,1.25,7.51,1.04,11.15-.62,2.92-1.33,5.49-3.19,7.85-5.34,1.16-1.07,1.73-1.04,2.66,.37,3.99,6.01,11,7.53,17.2,3.86,7.5-4.44,15.39-17.31,12.18-27.64-.29-.93-.43-1.91,.7-2.29,2.63-.88,5.08-2.14,8.01-3.87-.45,1.74-.7,2.77-.97,3.81-1.88,7.21-3.61,14.45-4.52,21.85-.45,3.64,.51,5.29,3.61,6.29,3.46,1.11,5.46,.31,7.12-2.96,2.5-4.95,4.85-9.97,7.46-14.85,2.09-3.94,4.15-7.93,7.11-11.62,.54,1.31,.04,2.15-.13,3.02-1.26,6.6-2.65,13.17-3.77,19.79-.53,3.1,.65,4.62,3.52,5.53,3.11,.97,5.28,.23,6.72-2.35,.58-1.03,1.06-2.12,1.63-3.15,3.24-5.86,6.28-11.84,10.57-17.44,.62,1.24,.13,2-.03,2.77-1.04,4.97-2.32,9.91-2.19,15.04,.16,6.38,3.11,10.72,8.42,12.32,4.51,1.36,8.83,.64,12.86-1.68,1.56-.89,2.72-.89,4.09,.44,1.93,1.87,4.42,2.84,7.03,3.41,6.07,1.35,17.64-4.25,20.61-9.92,.65-1.22,.46-2.21-.59-3.13Zm-111.96-1.97c-.96,1.2-2.14,2.23-3.28,3.26-.66,.59-1.42,1.36-2.39,1.03-1.12-.38-1.09-1.55-1.21-2.53-.06-.45,0-.91,0-2.11,.4-3.49,1.95-7.38,4.1-10.97,1.62-2.71,3.68-5.17,5.61-7.68,.53-.69,1.12-1.7,2.12-1.47,1.21,.28,1.09,1.57,1.22,2.5,.95,7.01-1.93,12.74-6.16,17.97Zm86.6-4.19c-.26,.27-.7,.03-.63-.33,.77-4.07,3.49-16.98,7.12-16.35,5.89,1.03-3.33,13.4-6.49,16.68Z"/><path class="cls-1" d="M223.27,150.41c-1.2,1.33-2.37,2.67-3.6,3.97-7.03,7.51-14.67,14.36-22.72,20.74-1.66,1.31-2.14,2.54-1.65,4.62,1.65,7.14,.26,13.93-3.21,20.24-3.71,6.75-11.74,9.58-18.18,6.66-6.71-3.03-9.07-9.77-5.71-16.35,2.26-4.43,6.18-7.32,9.82-10.45,1.93-1.66,3.85-3.35,5.93-4.8,1.87-1.31,1.46-2.4,.13-3.7-1.14-1.11-2.64-1.58-4.03-2.23-7.64-3.56-8.52-6.62-3.53-13.3,3.19-4.27,7.18-7.7,11.97-10.12,4.85-2.45,10.15-1,13.16,3.53,.4,.6,.93,1.22,.48,1.98-.49,.84-1.36,.78-2.19,.7-.27-.03-.59-.03-.79-.18-3.43-2.41-5.95-.23-8.51,1.68-3.38,2.54-6.14,5.64-8.28,9.3-.74,1.27-.65,2.09,.84,2.76,1.57,.7,3.26,1.41,4.45,2.58,1.98,1.93,3.37,1.49,5.26-.13,12.09-10.39,23.58-21.32,32.25-34.87,1.57-2.44,3.04-4.95,4.57-7.41,1.06-1.71,.96-2.62-1.42-2.5-9.34,.51-18.68,.94-28.02,1.39-15.05,.72-30.09,2.03-45.19,1.34-3.63-.17-7.3-.5-10.59-2.2-1.54-.79-3.87-1.94-2.99-3.91,.95-2.13,3.38-1.3,5.06-.42,2.38,1.24,4.94,1.18,7.43,1.3,8.08,.42,16.16-.1,24.23-.55,9.25-.51,18.49-1.01,27.74-1.53,8.7-.48,17.4-1.03,26.11-1.43,1.95-.09,2.91-.91,3.56-2.66,1.96-5.28,3.89-10.57,6.58-15.54,1.5-2.76,3.53-3.49,6.26-2.19,2.98,1.43,3.65,2.99,2.37,6.07-1.6,3.86-3.25,7.7-5.03,11.47-.82,1.75-.47,2.22,1.4,2.15,9.44-.33,18.88-.81,28.32-.82,11.62,0,23.24,.14,34.84,1.02,3.98,.3,7.97,.6,11.95,.92,2.46,.2,4.92,.45,6.73,2.44,.6,.66,1.42,1.32,.95,2.34-.4,.86-1.33,.85-2.15,.88-2.82,.11-5.62-.28-8.42-.52-19.67-1.7-39.38-1.45-59.09-1.08-4.99,.09-9.98,.41-14.97,.63-1.87,.08-3.14,.69-3.78,2.77-8.36,27.45-17.66,54.61-25.23,82.3-3.11,11.38-5.8,22.88-8.67,34.33-.04,.18-.06,.36-.13,.53-.71,1.68-.59,4.14-3,4.41-2.72,.31-4.89-1.07-6.58-3.17-.93-1.15-.71-2.43-.21-3.62,3.31-7.84,4.57-16.23,6.62-24.4,5.08-20.19,11.55-39.95,17.95-59.74,.53-1.62,.98-3.27,1.46-4.91l-.57-.4Zm-48.3,48.19c.07,1.07-.23,2.33,.81,3.01,1.18,.76,2.33-.06,3.27-.66,5.9-3.73,7.41-9.77,8.21-16.11,.19-1.52-.68-1.44-1.63-.65-2.94,2.43-5.85,4.89-8.25,7.88-1.52,1.9-2.33,4.08-2.42,6.52Z"/><path class="cls-1" d="M226.4,7.51c-.19-2.59-1.02-4.72-3.4-6.13-3.7-2.18-7.63-1.8-10.99,1.32-3.31,3.06-5.61,6.88-7.7,10.82-8.32,15.66-12.94,32.51-16.06,49.84-.29,1.6-.9,2.92-1.92,4.12-3.29,3.89-6.71,7.65-10.46,11.1-2.01,1.85-4.14,3.56-6.6,4.77-2.94,1.43-4.3,.78-4.75-2.4-.48-3.37,.24-6.68,1-9.96,.46-2.01,1.58-2.92,3.7-3.32,6.69-1.26,11.78-5.09,15.44-10.72,1.86-2.86,2.09-6.09,.08-9.01-2.02-2.92-5-4.11-8.55-3.65-1.94,.26-3.66,1.09-5.18,2.29-4.18,3.29-7.7,7.16-10.25,11.88-.52,.96-.67,2.79-2,2.51-1.45-.3-1.96-1.98-2.23-3.45-.11-.63-.08-1.28-.24-1.89-.48-1.89-3.64-3.83-5.85-3.61-2.55,.24-3.06,1.93-3.28,4.18-.83,8.45-4.07,15.99-9.32,22.59-1.63,2.05-3.64,4.8-6.68,3.7-3.12-1.13-3.01-4.4-3-7.28,.02-5.5,2.53-10.36,4.06-15.47,1.06-3.56-.57-5.97-4.32-6.25-2.52-.18-4.03,1.14-5.28,3.14-3.37,5.4-7.15,10.51-11.44,15.22-.96,1.05-1.79,3.45-3.27,2.55-1.28-.78-.27-3.04,.23-4.56,2.66-8.05,6.56-15.56,10.27-23.14,1.49-3.04,1.24-4.11-1.82-5.53-2.61-1.21-4.83-.56-6.17,2.05-3.56,6.95-7.08,13.93-9.96,21.2-.9,2.28-1.63,4.63-1.82,7.1-.36,4.61,1.23,7.64,4.91,9.47,4.13,2.05,7.97,1.6,11.36-1.39,1.34-1.18,2.61-2.44,4.27-4,.58,3.89,2.08,6.76,4.92,8.89,7.79,5.8,16.22,4.75,22.36-2.81,3.43-4.22,5.51-9.15,7.61-14.09,.33-.78,.47-1.98,1.75-1.63,1.4,.39,1,1.51,.74,2.48-.96,3.44-1.4,6.94-1.21,10.51,.18,3.59,1.55,6.49,4.8,8.32,6.03,3.39,12,3.15,17.81-.45,2.36-1.47,4.51-3.26,6.98-5.06,.47,1.54-.05,2.56-.2,3.62-.67,4.95-1.53,9.87-2.05,14.83-.42,4.03,2.39,6.42,6.41,5.85,1.65-.24,2.62-1.01,2.78-2.78,.94-10.78,3.22-21.36,4.69-32.06,.27-1.99,.8-3.87,2.1-5.52,9.85-12.6,17.66-26.4,24-41.05,2.36-5.44,4.18-11.05,3.73-17.14Zm-60.22,53.55c3.15-3.56,11.14-12.39,12.71-9.58,2.82,5.03-7.79,8.92-12.18,10.39-.48,.16-.87-.42-.53-.81Zm36.59-17.6c3.16-11.79,7.32-23.14,14.4-33.23-2.15,12.23-8.37,22.69-14.4,33.23Z"/><path class="cls-1" d="M561.46,139.18c-4.26,2.78-7.34,6.7-10.46,10.54-7.27,8.91-12.83,18.92-18.48,28.88-.49,.87-1.01,1.72-1.53,2.58-1.99,3.27-3.28,3.81-6.4,2.66-3.39-1.25-4.67-3.3-4.02-6.63,.76-3.89,1.61-7.76,2.59-12.43-2.64,3.11-4.76,5.65-6.94,8.15-3.84,4.4-8.06,8.38-13.08,11.43-5.52,3.35-11.17,4.29-16.94,.62-5.73-3.64-7.41-9.31-7.01-15.58,.7-10.98,5.7-19.93,13.89-27.15,2.27-2.01,4.9-3.5,7.89-4.12,3.65-.75,6.81,.16,9.37,3.01,2.3,2.57,1.82,5.41,.75,8.19-3.14,8.18-8.23,14.89-15.43,19.94-1.42,.99-3.02,1.65-4.63,2.28-1.14,.44-3.02-.09-3.09,1.96-.09,2.65-.03,5.37,1.82,7.47,.84,.96,2.09,.08,3.04-.34,5.26-2.31,9.54-6.01,13.31-10.2,9.32-10.36,17.71-21.4,23.89-33.97,1.24-2.53,3.14-2.43,5.26-1.71,2.81,.95,4.42,3.14,3.89,5.39-.91,3.89-1.96,7.75-2.95,11.62-.2,.77-.4,1.54-.42,2.39,3.35-4.32,6.62-8.64,10.17-12.74,3.12-3.6,6.66-6.69,10.63-9.29,1.52-1,3.18-1.77,5.03-1.98,5.69-.64,10.11,3.71,9.58,9.38-.13,1.4-.73,2.8-.03,4.59,1.98-2.34,3.78-4.54,5.66-6.68,4.24-4.82,9.02-8.97,14.93-11.63,3.31-1.49,6.61-1.76,9.81,.53,2.66,1.9,3.69,4.36,3.18,7.55-1.27,7.82-3.81,15.32-5.9,22.93-2.63,9.55-5.06,19.14-5.69,29.08-.15,2.32-1.44,3.04-3.51,2.45-3.14-.9-5.9-2.65-5.31-8.09,1.17-10.82,4.09-21.2,7.04-31.6,1.43-5.05,2.83-10.11,3.97-15.37-3.85,1.98-6.97,4.72-9.79,7.87-6.92,7.7-12.07,16.56-16.87,25.65-1.36,2.57-2.6,5.2-4,7.75-1.52,2.77-2.82,3.27-5.53,2.34-3.24-1.11-5.2-3.53-4.61-6.13,1.25-5.49,2.7-10.93,4.03-16.4,1.03-4.23,2.02-8.48,3-12.72,.17-.76,.59-1.55-.09-2.5Zm-59.11,7c-4.73,2.2-12.04,12.47-12.03,16.9,5.03-3.62,11.15-12.22,12.03-16.9Z"/><path class="cls-1" d="M458.94,174.01c-9.45,6.53-18.62,1.29-21.04-9.04-1.07,.28-1.49,1.24-2.08,1.96-1.68,2.05-3.6,3.82-5.63,5.51-6.5,5.41-14.76-.42-15.79-6.34-1.85-10.63,7.62-24.43,18.27-26.29,7.03-1.23,13.42,4.26,13.41,11.41,0,5.53-.53,11.09,.66,16.56,.68,3.12,1.34,3.39,3.92,1.51,3.81-2.76,6.74-6.36,9.25-10.26,1.37-2.13,.94-4.77,1.22-7.18,2.59-22.34,6.75-44.34,14.63-65.48,2.61-7,5.8-13.7,10.95-19.3,3.22-3.51,6.95-5.5,11.63-3.52,4.6,1.95,7.29,5.62,7.74,10.68,.34,3.85-.46,7.59-1.47,11.29-3.44,12.58-8.75,24.43-14.12,36.25-5.97,13.15-12.25,26.15-20.07,38.34-1.99,3.1-1.48,6.71-1.75,10.08-.74,9.32-1.35,18.65-1.19,28.01,.03,1.9,.37,3.79,.45,5.68,.12,2.99-1.21,4.03-4.07,3.11-2.77-.9-4.77-2.5-4.99-5.74-.48-7.26-.43-14.51,.07-21.76,.12-1.69,.02-3.39,.02-5.48Zm13.92-38.44c.91-.16,.98-.79,1.21-1.24,7.07-14.02,13.56-28.31,18.98-43.06,2.22-6.04,4.34-12.15,4.34-18.73,0-.87,.31-2.03-.7-2.4-.84-.31-1.4,.68-1.93,1.26-2.72,2.97-4.84,6.34-6.62,9.93-6.09,12.3-9.48,25.47-12.43,38.78-1.13,5.09-2.26,10.19-2.85,15.47Zm-49.83,31.61c7.03-5.65,10.52-13,13.22-21.13-7.68,2.56-14.47,13.31-13.22,21.13Z"/><path class="cls-1" d="M37.02,181.96c-1.41,2.49-2.78,5.01-4.23,7.48-2.91,4.94-6.12,9.67-9.81,14.06-.7,.83-1.43,1.65-2.2,2.41-6.95,6.86-16.69,4.29-19.56-5.16-2.16-7.12-1.05-14.24,.19-21.31,2.87-16.36,8.62-31.88,14.42-47.36,2.58-6.89,5.35-13.7,8.73-20.25,1.68-3.26,4.46-3.82,7.34-1.59,1.68,1.3,2.04,2.62,1.08,4.69-9.47,20.2-16.84,41.16-22.03,62.86-1.67,7-2.69,14.1-2.01,21.33,.12,1.31-.06,3.15,1.19,3.71,1.48,.67,2.28-1.13,3.16-2.04,6.1-6.35,10.51-13.88,14.62-21.57,4.24-7.93,8.04-16.08,11.7-24.29,1.41-3.16,2.59-3.86,5.38-3.18,3.24,.79,5.28,3.21,4.85,6.16-.95,6.55-2.18,13.07-3.07,19.63-.86,6.32-1.03,12.66,.38,18.95,.17,.75,.12,1.85,1.06,2.03,.87,.17,1.4-.75,1.91-1.35,4.98-5.95,7.97-12.98,10.57-20.16,7.58-20.9,12.47-42.49,15.92-64.41,.53-3.39,.56-6.87,.79-10.31,.19-2.73,1.19-3.49,3.9-2.89,3.07,.68,4.92,2.97,4.91,6.24-.04,8.49-1.6,16.8-3.29,25.07-3.61,17.72-7.9,35.26-14.46,52.17-2.53,6.53-5.4,12.9-9.96,18.35-5.76,6.89-14.28,5.88-18.24-2.24-1.82-3.74-2.43-7.78-2.65-11.88-.09-1.68-.01-3.36-.01-5.04l-.59-.11Z"/><path class="cls-1" d="M276.09,152.71c-3.59,2.03-6.67,3.71-9.69,5.49-1.35,.8-.9,2.25-.96,3.48-.71,14.61-6.68,26.7-18.04,35.83-8.23,6.62-17.59,2.62-19.33-7.85-2.26-13.63,6.71-26.89,16.51-32.21,3.12-1.69,6.49-2.29,10.03-1.37,1.15,.3,2.34,.72,2.7-1.12,.17-.84,1.05-1.21,1.79-1.56,6.3-3,11.72-7.24,16.94-11.79,4.17-3.63,6.28-4.04,9.18-2.18,3.18,2.03,3.34,2.97,1.62,9.05-.76,2.69-1.5,5.38-2.41,8.66,1.91-1.28,2.69-2.78,3.74-4.01,4.94-5.78,10.55-10.28,18.74-10,6.5,.22,10.76,4.37,10.86,10.85,.12,7.43-1.69,14.59-3.37,21.75-1.71,7.26-2.82,14.62-3.96,21.98-.01,.09-.04,.18-.04,.27-.05,1.87,.81,4.33-2.61,4.04-3.46-.3-6.36-2.95-6.05-5.73,1.02-9.22,2.82-18.3,4.93-27.33,1.3-5.57,2.59-11.16,2.72-16.91,.07-3.16-.63-3.6-3.53-2.44-5.48,2.2-9.08,6.55-12.38,11.16-5.57,7.8-9.53,16.49-13.63,25.1-.94,1.97-1.89,3.93-2.88,5.87-1.51,2.98-2.8,3.55-5.61,2.59-3.23-1.11-4.67-3.2-4.14-6.04,1.65-8.85,3.65-17.61,6.29-26.22,.89-2.92,1.64-5.88,2.59-9.33Zm-39.96,35.7c.11,1.05,.23,2.22,.36,3.39,.32,2.72,.67,2.89,2.95,1.41,.61-.39,1.23-.79,1.76-1.28,8.16-7.58,13.59-16.66,15.23-27.81,.31-2.08-.79-3.08-2.88-2.6-.95,.22-1.91,.64-2.72,1.18-9.1,6.1-14.2,14.52-14.7,25.71Z"/><path class="cls-1" d="M116.56,179.36c-4.04,4.92-7.71,9.88-12.32,14.04-1.42,1.28-2.88,2.5-4.38,3.68-2.97,2.34-6.17,3.42-9.87,1.68-4.07-1.9-6.33-5.02-6.68-9.51-.37-4.7,.49-9.23,1.77-13.71,1.9-6.64,3.86-13.27,6.63-19.6,1.68-3.84,5.1-4.39,8.07-1.53,1.05,1,1.27,1.95,.65,3.37-4.2,9.6-7.38,19.52-8.93,29.92-.23,1.53-.76,3.61,.47,4.35,1.15,.69,2.39-1.17,3.41-2.07,7.39-6.51,12.83-14.53,17.71-22.98,2.22-3.85,4.49-7.68,6.78-11.49,1.53-2.54,3.4-3.19,5.9-2.18,2.87,1.15,4.35,3.41,3.84,6.08-.73,3.82-1.55,7.62-2.46,12.09,2.36-2.7,3.3-5.46,4.72-7.91,2.85-4.88,5.96-9.56,9.57-13.89,2.47-2.96,5.33-5.48,9.21-6.47,7.35-1.88,13.63,2.98,13.59,10.58-.04,8.08-2.3,15.78-4.03,23.58-1.59,7.18-3.17,14.36-4.15,21.66-.27,2.03-.21,4.46-3.31,4.32-3.22-.15-6.21-2.99-5.74-5.64,1-5.72,2.2-11.41,3.3-17.12,1.68-8.73,4.57-17.22,5.33-26.14,.14-1.67,1.11-4.09-.37-4.81-1.64-.8-3.14,1.33-4.35,2.59-5.94,6.14-10.11,13.5-14.06,20.98-4.16,7.87-8.25,15.77-12.42,23.64-1.62,3.06-2.82,3.57-5.62,2.68-3.28-1.04-4.74-2.94-4.35-5.94,.62-4.75,1.36-9.49,2.05-14.24Z"/><path class="cls-1" d="M415.44,30.18c7.46-.87,14.81-1.86,22.11-3.2,2.29-.42,4.53-.56,6.53,.93,.77,.57,1.88,1.03,1.64,2.27-.22,1.16-1.28,1.49-2.27,1.66-4.11,.72-8.23,1.43-12.36,2.04-5.48,.8-10.97,1.54-16.46,2.23-1.41,.18-2.34,.71-2.86,2.09-3.97,10.51-6.95,21.22-6.64,32.6,.06,2.25-.28,5.18,1.96,6.09,1.97,.81,3.57-1.67,5.12-2.97,5.61-4.72,8.66-11.36,12.65-17.28,.28-.42,.28-1.04,.38-1.57,1.24-6.26,5.21-10.92,10.23-11.83,6.63-1.21,11.63,1.8,15.24,6.89,7.79,10.99,1.76,29.53-10.85,34.11-6.06,2.2-12.25-.17-15.3-5.85-1.56-2.91-1.54-2.88-4.2-.73-1.83,1.49-3.71,2.92-5.85,3.96-7.83,3.78-16.94-.95-18.17-9.57-1.22-8.55,.71-16.78,2.84-24.97,.55-2.11,1.2-4.19,1.91-6.25,.68-1.95,.29-2.76-1.92-2.31-2.31,.48-4.65,.8-6.97,1.22-2.04,.37-4,.13-5.83-.82-1.11-.58-2.49-1.21-2.19-2.75,.27-1.39,1.73-1.61,2.86-1.64,4.11-.12,8.06-1.46,12.12-1.69,3.97-.23,6.27-1.89,7.34-5.78,.62-2.24,1.94-4.29,3.04-6.38,1.68-3.2,4.91-3.96,8.03-2.04,1.49,.92,1.93,1.95,1.06,3.61-1.17,2.25-2.15,4.6-3.19,6.92-.1,.21-.01,.5-.01,1.02Zm16.38,39.6c-.03,2.66-.03,4.9,.81,7.08,.73,1.89,1.63,2.35,3.43,1.12,4.17-2.87,6.69-6.87,7.89-11.65,1.39-5.51,1.31-10.93-1.87-15.96-1.07-1.69-2.25-1.88-3.76-.57-3.25,2.82-4.18,6.42-3.63,10.54,.12,.87,.76,2.04-.21,2.51-3.39,1.62-2.39,4.69-2.67,6.95Z"/><path class="cls-1" d="M351.43,163.78c-.22,1.16-1.28,1.49-2.27,1.66-4.11,.71-15.69,2.31-17.96,2.72-2.04,.37-4,.14-5.83-.81-1.1-.58-2.49-1.21-2.19-2.75,.28-1.4,1.73-1.61,2.86-1.64,4.11-.13,9.93-1.04,17.23-2.38,2.29-.42,4.53-.56,6.52,.93,.77,.57,1.88,1.03,1.64,2.27Z"/><path class="cls-1" d="M360.65,164.13c.14-3.43,.57-6.75,1.67-9.97,.72-2.11,2.19-3.36,4.42-3.44,2.6-.1,4.46,1.29,5.87,3.36,.33,.49,.28,1.02-.03,1.54-4.22,7.08-3.55,14.37-.79,21.68,.99,2.63,2.5,5.04,4.24,7.28,3.8,4.9,8.61,5.84,13.89,2.59,3.91-2.41,6.78-5.81,8.35-10.11,3.45-9.43,2.67-18.75-1.34-27.81-1.7-3.83-4.59-6.69-8.37-8.65-2.49-1.3-4.98-2.65-7.31-4.22-8.79-5.93-11.3-15.13-5.91-24.22,5.9-9.94,14.29-16.68,26.58-16.69,6.9,0,12.42,3.05,16.63,8.47,1.81,2.34,2.39,5.03,2,7.96-.26,1.9-1.35,2.41-3.08,2.05-2.65-.55-4.5-2.55-4.8-5.22-.68-6.04-3.81-8.42-9.8-7.43-9.22,1.52-19.7,11.88-21.38,21.14-.97,5.35,1.01,9.48,5.83,11.99,3.63,1.89,7.15,3.92,10.36,6.5,12.58,10.13,14.52,30.81,8.45,42.42-6.07,11.62-18.68,15.36-29.84,8.27-9.9-6.28-14.95-15.77-15.65-27.48Z"/><path class="cls-1" d="M109.21,141.68c-.15,3.03-1.02,4.11-3.23,3.98-2.79-.16-5.63-2.51-5.61-4.63,.03-2.47,1.81-4.31,4.01-4.16,2.67,.19,4.95,2.46,4.83,4.81Z"/></g></g></svg>